<svg width="352" height="110" viewBox="0 0 352 110" fill="none" xmlns="http://www.w3.org/2000/svg">
<path d="M120.114 92.7937L106.896 22.8214C105.603 15.9389 112.5 14.0749 112.5 10.0601V9.48652C112.5 7.76589 111.206 6.76218 109.195 6.76218H89.6548C85.9192 6.76218 83.4767 8.6262 82.1836 12.2108L62.0687 72.7197L41.2355 11.9241C39.9424 8.48282 37.3562 6.76218 33.4769 6.76218H14.5114C12.4999 6.76218 11.2069 7.76589 11.2069 9.48652V10.0601C11.2069 14.2182 17.816 15.9389 16.8103 22.5346L5.89078 92.7937C4.88504 99.5328 0 101.253 0 105.268V105.842C0 107.562 1.2931 108.566 3.44826 108.566H21.2643C23.2758 108.566 24.7125 107.562 24.7125 105.842V105.268C24.7125 101.253 18.5344 99.5328 19.5402 92.7937L27.2987 40.4579L52.4423 104.408C53.7354 107.276 55.4595 108.423 58.4768 108.423C61.3503 108.423 62.6434 107.132 63.6492 104.265L85.6318 42.752L94.2525 92.7937C95.4019 99.3894 89.2238 101.253 89.2238 105.268V105.842C89.2238 107.562 90.5169 108.566 92.672 108.566H122.557C124.568 108.566 126.005 107.562 126.005 105.842V105.268C126.005 101.253 121.408 99.5328 120.114 92.7937Z" fill="white"/>
<path d="M150.34 31.2812C160.11 31.2812 166.719 24.9722 166.719 16.9426C166.719 8.76959 160.11 2.604 150.34 2.604C140.426 2.604 133.817 8.76959 133.817 16.9426C133.817 24.9722 140.426 31.2812 150.34 31.2812ZM134.966 108.566H165.857C168.012 108.566 169.449 107.562 169.449 105.842V105.268C169.449 101.11 162.983 99.3894 162.983 92.7937V42.0351C162.983 39.3108 160.541 37.0166 156.518 39.024L134.822 49.6346C132.811 50.6383 131.518 51.3552 131.518 52.9324V53.506C131.518 56.9472 137.265 58.9546 137.265 65.5504V92.7937C137.265 99.3894 131.518 101.11 131.518 105.268V105.842C131.518 107.562 132.811 108.566 134.966 108.566Z" fill="white"/>
<path d="M178.295 108.566H209.329C211.341 108.566 212.778 107.562 212.778 105.842V105.268C212.778 101.11 206.456 99.5328 206.456 92.9371V3.75109C206.456 1.17014 203.87 -1.26742 199.847 0.739978L178.151 11.3505C176.283 12.3542 174.99 13.0712 174.99 14.6484V15.222C174.99 18.8066 180.594 20.6706 180.594 27.4097V92.9371C180.594 99.5328 174.99 101.11 174.99 105.268V105.842C174.99 107.562 176.283 108.566 178.295 108.566Z" fill="white"/>
<path d="M277.969 85.9112C275.383 89.3524 269.779 92.2202 263.601 92.2202C256.561 92.2202 250.958 88.7789 247.222 82.9001L275.814 66.8409C279.118 65.1202 281.417 62.2525 281.417 57.9509C281.417 48.9176 272.797 38.3071 253.975 38.3071C235.153 38.3071 218.63 52.5023 218.63 73.7234C218.63 95.518 233.285 110 254.118 110C272.94 110 282.998 95.8048 283.285 87.9186C283.429 84.7641 279.98 83.9038 277.969 85.9112ZM251.389 45.333C258.716 45.333 261.015 55.5134 261.015 60.1017C261.015 63.1128 259.578 65.8372 257.279 67.4144L243.917 75.444C242.481 71.1424 241.762 65.9805 241.762 60.3885C241.762 52.0721 245.498 45.333 251.389 45.333Z" fill="white"/>
<path d="M320.678 109.857C340.649 109.857 352 100.68 352 88.7789C352 62.3959 315.219 72.7197 315.219 53.0758C315.219 48.9176 317.517 44.9028 321.971 44.9028C331.885 44.9028 327.287 64.2599 341.224 64.2599C346.54 64.2599 350.851 60.5319 350.851 55.5134C350.851 46.1933 338.925 38.3071 320.678 38.3071C302.719 38.3071 290.362 47.3404 290.362 60.1017C290.362 87.9186 328.437 76.8779 328.437 95.6614C328.437 101.397 324.989 103.548 320.678 103.548C308.753 103.548 313.638 83.9038 299.27 83.9038C293.523 83.9038 289.069 86.6281 289.069 93.0805C289.069 103.117 302.575 109.857 320.678 109.857Z" fill="white"/>
</svg>
