<svg fill="none" version="1.1" viewBox="0 0 28 28" xmlns="http://www.w3.org/2000/svg">
 <g fill="#fff">
  <path d="m13.999 8.6065c-2.9796 0-5.3935 2.415-5.3935 5.3935 0 2.9796 2.4139 5.3946 5.3935 5.3946 2.9774 0 5.3935-2.415 5.3935-5.3946 0-2.9785-2.4161-5.3935-5.3935-5.3935zm0 8.8981c-1.9355 0-3.5046-1.5691-3.5046-3.5035 0-1.9355 1.5691-3.5035 3.5046-3.5035s3.5024 1.568 3.5024 3.5035c0 1.9344-1.5669 3.5035-3.5024 3.5035z"/>
  <path d="m19.607 9.6658c0.6946 0 1.2577-0.56307 1.2577-1.2577s-0.5631-1.2577-1.2577-1.2577-1.2577 0.56308-1.2577 1.2577 0.5631 1.2577 1.2577 1.2577z"/>
  <path d="m23.955 7.1295c-0.5472-1.4105-1.6614-2.5258-3.0719-3.0707-0.8155-0.30683-1.6776-0.47133-2.5503-0.49-1.1235-0.049-1.4793-0.063-4.3283-0.063s-3.2142 0-4.3284 0.063c-0.87033 0.0175-1.7325 0.182-2.548 0.49-1.4117 0.54484-2.5258 1.6602-3.0718 3.0707-0.30684 0.81667-0.47134 1.6777-0.48884 2.5503-0.05016 1.1223-0.06533 1.4782-0.06533 4.3283 0 2.849 0 3.2119 0.06533 4.3284 0.0175 0.8726 0.182 1.7336 0.48884 2.5515 0.54716 1.4093 1.6613 2.5246 3.073 3.0706 0.812 0.3174 1.6742 0.497 2.5492 0.525 1.1236 0.049 1.4794 0.0642 4.3284 0.0642s3.2142 0 4.3283-0.0642c0.8715-0.0175 1.7337-0.1831 2.5504-0.4888 1.4105-0.5472 2.5246-1.6613 3.0718-3.0718 0.3068-0.8167 0.4713-1.6777 0.4888-2.5504 0.0502-1.1223 0.0654-1.4781 0.0654-4.3283s0-3.2118-0.0654-4.3283c-0.0151-0.88433-0.1785-1.7605-0.4911-2.5865zm-1.421 11.121c-0.0082 0.672-0.1295 1.3382-0.3629 1.9694-0.3558 0.9181-1.0803 1.6438-1.9973 1.9961-0.6242 0.2322-1.2822 0.3535-1.9483 0.3629-1.1084 0.0513-1.421 0.0641-4.263 0.0641-2.8444 0-3.1349 0-4.2642-0.0641-0.66384-0.0082-1.3242-0.1307-1.9472-0.3629-0.9205-0.3511-1.6497-1.0768-2.0055-1.9961-0.22867-0.623-0.35233-1.2822-0.36283-1.9472-0.05017-1.1083-0.06184-1.421-0.06184-4.263 0-2.8432 0-3.1337 0.06184-4.2642 0.00816-0.672 0.1295-1.337 0.36283-1.9682 0.35583-0.9205 1.085-1.645 2.0055-1.9973 0.623-0.231 1.2833-0.3535 1.9472-0.36284 1.1095-0.05016 1.421-0.06416 4.2642-0.06416 2.8431 0 3.1348 0 4.263 0.06416 0.6661 0.00817 1.3241 0.13067 1.9483 0.36284 0.917 0.3535 1.6415 1.0792 1.9973 1.9973 0.2287 0.623 0.3524 1.2822 0.3629 1.9472 0.0501 1.1094 0.063 1.421 0.063 4.2642 0 2.842 0 3.1477-0.0502 4.263h-0.0128v-0.0012z"/>
 </g>
</svg>
