<svg version="1.1" viewBox="0 0 28 28" xmlns="http://www.w3.org/2000/svg">
 <path d="m26.202 7.0144c-0.8978 0.39824-1.8629 0.66738-2.8756 0.7884 1.0336-0.61966 1.8276-1.6009 2.2014-2.7701-0.9675 0.57384-2.039 0.9905-3.1795 1.215-0.9133-0.97309-2.2145-1.5811-3.6546-1.5811-2.7651 0-5.0071 2.2417-5.0071 5.0068 0 0.39243 0.0443 0.77453 0.1297 1.141-4.1612-0.2088-7.8506-2.2021-10.32-5.2314-0.43102 0.73948-0.67793 1.5996-0.67793 2.5172 0 1.7371 0.8839 3.2696 2.2274 4.1675-0.82068-0.0261-1.5928-0.2513-2.2678-0.6263-4.8e-4 0.021-4.8e-4 0.0418-4.8e-4 0.063 0 2.4259 1.7259 4.4495 4.0164 4.9095-0.42012 0.1145-0.86246 0.1757-1.3191 0.1757-0.32263 0-0.63629-0.0315-0.94206-0.0898 0.63717 1.989 2.4862 3.4368 4.6773 3.477-1.7136 1.3431-3.8725 2.1435-6.2184 2.1435-0.40414 0-0.80269-0.0238-1.1944-0.0701 2.2158 1.4207 4.8477 2.2497 7.6752 2.2497 9.2095 0 14.246-7.6294 14.246-14.246 0-0.217-0.0049-0.43294-0.0146-0.64773 0.9784-0.70594 1.8272-1.5878 2.4984-2.5918z" fill="#fff"/>
</svg>
